<?xml version="1.0" encoding="UTF-8"?><svg xmlns="http://www.w3.org/2000/svg" xmlns:xlink="http://www.w3.org/1999/xlink" height="494.6" preserveAspectRatio="xMidYMid meet" version="1.0" viewBox="0.0 0.0 496.1 494.6" width="496.1" zoomAndPan="magnify"><g id="change1_1"><path d="M94.6303711,494.5703125c-1.3798828,0-2.7553711-0.3808594-3.9648438-1.1328125 c-2.1987305-1.3701172-3.5356445-3.7763672-3.5356445-6.3671875v-80.5625C31.7050781,362.5263672,0,298.7089844,0,230.840332 c0-61.7661133,25.8754883-119.8041992,72.8598633-163.4228516C119.6889648,23.9423828,181.9130859,0,248.0698242,0 c66.1572266,0,128.3808594,23.9423828,175.2109375,67.4174805c46.984375,43.6181641,72.859375,101.65625,72.859375,163.4228516 c0,61.7631836-25.875,119.7993164-72.859375,163.4194336c-46.8310547,43.4765625-109.0556641,67.4208984-175.2109375,67.4208984 c-22.8691406,0-45.4990234-2.8945312-67.3081055-8.6064453l-82.8222656,40.7265625 C96.8930664,494.3154297,95.7602539,494.5703125,94.6303711,494.5703125z M248.0698242,15 C119.5546875,15,15,111.8256836,15,230.840332c0,64.3598633,30.690918,124.8891602,84.2036133,166.065918 c1.8452148,1.4199219,2.9262695,3.6162109,2.9262695,5.9443359v72.1738281l74.5405273-36.6542969 c1.6425781-0.8076172,3.5234375-0.9863281,5.2895508-0.5039062c21.3681641,5.8486328,43.6108398,8.8144531,66.1098633,8.8144531 c128.515625,0,233.0703125-96.8251953,233.0703125-215.840332C481.1401367,111.8256836,376.5854492,15,248.0698242,15z M274.815918,309.9462891c-0.6621094,0-1.2988281-0.2626953-1.7675781-0.7324219l-64.0649414-64.0644531L97.5439453,305.796875 c-1.0898438,0.59375-2.453125,0.2958984-3.1972656-0.6992188s-0.644043-2.3857422,0.2348633-3.2646484l126.9272461-126.9272461 c0.9755859-0.9765625,2.5595703-0.9765625,3.5351562,0l62.0649414,62.0644531l111.0126953-68.578125 c1.0585938-0.6538086,2.4414062-0.4291992,3.2373047,0.5297852c0.7958984,0.9594727,0.7636719,2.3579102-0.0751953,3.2797852 L276.6645508,309.1289062c-0.4599609,0.5058594-1.1064453,0.8007812-1.7900391,0.8164062 C274.8549805,309.9462891,274.8354492,309.9462891,274.815918,309.9462891z" fill="inherit"/></g></svg>